<svg xmlns="http://www.w3.org/2000/svg" viewBox="0 0 620 250" role="img" aria-label="Singtel FlexBuild modular solutions logo">
  <defs>
    <linearGradient id="redFace" x1="0" y1="0" x2="1" y2="1">
      <stop offset="0" stop-color="#f51d35"/>
      <stop offset="1" stop-color="#c90f2a"/>
    </linearGradient>
    <linearGradient id="blueFace" x1="0" y1="0" x2="1" y2="1">
      <stop offset="0" stop-color="#2588bd"/>
      <stop offset="1" stop-color="#0d5f93"/>
    </linearGradient>
    <linearGradient id="blueDark" x1="0" y1="0" x2="1" y2="1">
      <stop offset="0" stop-color="#0e5f91"/>
      <stop offset="1" stop-color="#0a426b"/>
    </linearGradient>
  </defs>

  <rect width="620" height="250" fill="#fff"/>

  <g transform="translate(22 38)">
    <path d="M92 0 164 42 164 126 92 168 20 126 20 42Z" fill="#f6f8fb"/>
    <path d="M91 0 20 42 20 126 91 86Z" fill="url(#redFace)"/>
    <path d="M92 0 164 42 92 84 20 42Z" fill="#f31b34"/>
    <path d="M164 42 164 126 92 168 92 84Z" fill="url(#blueFace)"/>
    <path d="M92 84 164 126 92 168 20 126Z" fill="url(#blueDark)"/>
    <path d="M55 70 98 45 130 64 84 92 130 120 98 139 55 114 86 93Z" fill="#fff"/>
  </g>

  <g transform="translate(230 34)">
    <circle cx="22" cy="58" r="12" fill="#f20b33"/>
    <circle cx="74" cy="22" r="17" fill="#f20b33"/>
    <circle cx="129" cy="18" r="20" fill="#f20b33"/>
    <circle cx="183" cy="30" r="22" fill="#f20b33"/>
    <circle cx="236" cy="58" r="26" fill="#f20b33"/>
  </g>

  <text x="235" y="132"
        fill="#1a2930"
        font-family="Arial Black, Arial, Helvetica, sans-serif"
        font-size="82"
        font-weight="900"
        letter-spacing="-4">Singtel</text>

  <text x="235" y="196"
        fill="#21668d"
        font-family="Arial, Helvetica, sans-serif"
        font-size="64"
        font-weight="500"
        letter-spacing="-2">FlexBuild</text>

  <text x="236" y="232"
        fill="#1f2a30"
        font-family="Arial, Helvetica, sans-serif"
        font-size="27"
        font-weight="700"
        letter-spacing="2">MODULAR SOLUTIONS</text>
</svg>
